<?xml version="1.0" standalone="no"?>
<!DOCTYPE svg PUBLIC "-//W3C//DTD SVG 20010904//EN"
 "http://www.w3.org/TR/2001/REC-SVG-20010904/DTD/svg10.dtd">
<svg version="1.0" xmlns="http://www.w3.org/2000/svg"
 width="89.000000pt" height="89.000000pt" viewBox="0 0 89.000000 89.000000"
 preserveAspectRatio="xMidYMid meet">
<metadata>
Created by potrace 1.14, written by Peter Selinger 2001-2017
</metadata>
<g transform="translate(0.000000,89.000000) scale(0.100000,-0.100000)"
fill="#000000" stroke="none">
<path d="M76 799 c17 -19 19 -43 24 -258 l5 -238 28 -41 c39 -55 84 -75 181
-78 l79 -2 -50 44 c-78 67 -86 96 -89 314 -2 102 -3 193 -3 203 -1 10 -14 32
-30 48 -27 26 -36 29 -97 29 l-67 0 19 -21z"/>
<path d="M355 810 c-28 -11 -44 -32 -47 -60 -3 -23 0 -24 69 -25 70 -1 71 -1
77 26 3 16 15 38 26 49 l20 20 -62 -1 c-35 0 -72 -4 -83 -9z"/>
<path d="M8 788 c-2 -13 -3 -122 -2 -243 1 -259 10 -302 78 -369 57 -58 107
-79 198 -84 88 -5 128 11 128 51 0 22 -4 23 -67 22 -108 -1 -149 11 -197 58
-23 23 -46 58 -52 77 -6 20 -11 128 -11 248 -1 208 -2 214 -24 238 -28 30 -46
31 -51 2z"/>
<path d="M503 794 c-12 -11 -24 -28 -27 -40 -6 -19 -3 -20 68 -19 41 0 95 -5
120 -12 53 -16 110 -69 126 -119 7 -19 12 -125 13 -254 2 -220 2 -222 26 -241
50 -41 51 -38 51 219 0 271 -7 312 -66 380 -58 68 -111 93 -207 99 -70 5 -85
3 -104 -13z"/>
<path d="M525 690 c95 -75 104 -105 105 -341 1 -111 6 -202 12 -214 21 -42 50
-55 121 -55 l68 0 -21 22 c-24 26 -22 4 -24 264 -2 240 -9 265 -84 318 -36 25
-51 29 -127 32 l-87 3 37 -29z"/>
<path d="M430 639 c0 -6 -25 -52 -55 -103 -61 -102 -67 -137 -34 -180 l22 -27
18 40 c10 22 37 72 60 111 45 77 50 106 25 145 -17 26 -36 33 -36 14z"/>
<path d="M500 563 c0 -10 -23 -56 -51 -103 -64 -107 -71 -145 -34 -182 25 -26
45 -29 45 -8 0 5 23 47 52 95 58 97 64 135 29 184 -25 35 -41 40 -41 14z"/>
<path d="M442 172 c-7 -2 -12 -12 -12 -21 0 -10 -9 -30 -21 -45 l-20 -26 60 0
c33 0 71 5 84 11 27 12 59 60 49 74 -7 10 -117 15 -140 7z"/>
</g>
</svg>
